<!DOCTYPE svg PUBLIC "-//W3C//DTD SVG 1.1//EN" "http://www.w3.org/Graphics/SVG/1.1/DTD/svg11.dtd">
<!-- Uploaded to: SVG Repo, www.svgrepo.com, Transformed by: SVG Repo Mixer Tools -->
<svg width="256px" height="256px" viewBox="-5.76 -5.76 43.52 43.52" xmlns="http://www.w3.org/2000/svg" fill="#000000" transform="matrix(1, 0, 0, 1, 0, 0)rotate(-45)" stroke="#000000" stroke-width="0.44800000000000006">
<g id="SVGRepo_bgCarrier" stroke-width="0">
<path transform="translate(-5.76, -5.76), scale(1.36)" d="M16,27.798781108643325C17.853652253768672,27.63457945375709,19.70864384063793,27.925265011406992,21.499741216872774,27.420330312447096C23.47083857818524,26.864651170731655,25.80467976975225,26.427563949579913,26.931001849367313,24.717183088694775C28.072026765233772,22.98447517751003,26.728361402107293,20.572297361469467,27.318990795774894,18.58348578581779C27.96273623140653,16.4158178913925,30.301254313351027,14.942054809128571,30.50284014856998,12.689821375965431C30.71120284277591,10.36187295833561,30.239055235786513,7.57065263027345,28.438023360864825,6.081007359412624C26.554756266377144,4.523344799335295,23.67341321303754,5.504071557611937,21.27118936696465,5.054262494113324C19.469634713257346,4.716926898619006,17.832579361857555,3.7843884419204543,16,3.7520255499652446C14.151708546292658,3.719385186408255,12.323652765056043,4.106808210930947,10.638384078702575,4.866489819222995C8.931759634849392,5.635798127598567,7.510801549686857,6.8506002539256885,6.187892343941643,8.175105255444157C4.762524445111454,9.602192543676434,3.142443992416144,11.0001093984848,2.5780657791371073,12.936531100394202C2.007713605043807,14.893449885810572,2.8845626639225217,16.924798268064027,3.0455300685051014,18.95677322604712C3.2308335271525395,21.295954804924367,2.2147088965530752,23.994463598872073,3.6038546858946354,25.88559601271833C4.9819641844236005,27.761704022758693,7.709492259868386,28.08304045577909,10.010120590716452,28.438112756265348C12.019785406017212,28.748278592096852,13.974472531551365,27.9782079464769,16,27.798781108643325" fill="#7ed0ec" strokewidth="0"/>
</g>
<g id="SVGRepo_tracerCarrier" stroke-linecap="round" stroke-linejoin="round"/>
<g id="SVGRepo_iconCarrier"> <g fill="none" fill-rule="evenodd"> <circle cx="16" cy="16" r="16" fill="#26A17B"/> <path fill="#FFF" d="M17.922 17.383v-.002c-.11.008-.677.042-1.942.042-1.01 0-1.721-.03-1.971-.042v.003c-3.888-.171-6.79-.848-6.79-1.658 0-.809 2.902-1.486 6.79-1.66v2.644c.254.018.982.061 1.988.061 1.207 0 1.812-.05 1.925-.06v-2.643c3.88.173 6.775.85 6.775 1.658 0 .81-2.895 1.485-6.775 1.657m0-3.59v-2.366h5.414V7.819H8.595v3.608h5.414v2.365c-4.4.202-7.709 1.074-7.709 2.118 0 1.044 3.309 1.915 7.709 2.118v7.582h3.913v-7.584c4.393-.202 7.694-1.073 7.694-2.116 0-1.043-3.301-1.914-7.694-2.117"/> </g> </g>
</svg>